<?xml version="1.0" ?><svg height="56px" version="1.1" viewBox="0 0 56 56" width="56px" xmlns="http://www.w3.org/2000/svg" xmlns:xlink="http://www.w3.org/1999/xlink"><title/><desc/><defs/><g fill="none" fill-rule="evenodd" id="Page-1" stroke="none" stroke-width="1"><g fill="#000000" fill-rule="nonzero" id="020---Star" transform="translate(-1.000000, 0.000000)"><path d="M56.69141,22.40723 C56.9840908,22.1082187 57.0803862,21.6683586 56.93941,21.27441 C56.8336076,20.9194822 56.5351149,20.6556513 56.16988,20.59424 L39.52539,18.06006 C38.547823,17.9050794 37.7117562,17.2731759 37.2959,16.375 L29.85254,0.5708 C29.7102265,0.225399323 29.3735703,-2.8177868e-06 29,-2.8177868e-06 C28.6264297,-2.8177868e-06 28.2897735,0.225399323 28.14746,0.5708 L20.7041,16.37451 C20.2884416,17.2729326 19.4523171,17.9050636 18.47461,18.06006 L1.83008,20.59424 C1.4648451,20.6556513 1.16635236,20.9194822 1.06055,21.27441 C0.919573812,21.6683586 1.01586916,22.1082187 1.30855,22.40723 L13.35254,34.709 C14.0401004,35.4188604 14.3499607,36.4129069 14.18754,37.38772 L11.3457,54.75732 C11.2657928,55.1673258 11.432595,55.5862386 11.77246,55.8291 C12.0493307,56.0328293 12.4202524,56.0542664 12.71875,55.88379 L27.60547,47.68262 C28.4730796,47.2021527 29.5269204,47.2021527 30.39453,47.68262 L45.28125,55.88379 C45.5795456,56.0551246 45.9509688,56.0336585 46.22754,55.8291 C46.567405,55.5862386 46.7342072,55.1673258 46.6543,54.75732 L43.81152,37.38721 C43.6499452,36.4121121 43.9604846,35.4181758 44.64844,34.7085 L56.69141,22.40723 Z M41.34473,37.793 L43.5293,51.14111 C43.5602753,51.3299319 43.4807136,51.519864 43.3244077,51.6302346 C43.1681019,51.7406052 42.9624964,51.7520352 42.79492,51.65967 L31.60059,45.49316 C29.9781509,44.6163835 28.0231662,44.6160075 26.40039,45.49216 L15.20508,51.65967 C15.0375036,51.7520352 14.8318981,51.7406052 14.6755923,51.6302346 C14.5192864,51.519864 14.4397247,51.3299319 14.4707,51.14111 L16.65527,37.791 L16.65527,37.79051 C16.9444059,36.0301368 16.3808823,34.2370144 15.13672,32.95851 L5.71289,23.33251 C5.58142465,23.1985621 5.53615086,23.0022195 5.59568769,22.8242292 C5.65522453,22.6462389 5.80952026,22.5166513 5.99512,22.48876 L18.85156,20.53176 C20.6516182,20.2516709 22.193945,19.0934597 22.96484,17.44289 L28.54784,5.58938 C28.6403327,5.42682643 28.8129644,5.32643267 28.99999,5.32643267 C29.1870156,5.32643267 29.3596473,5.42682643 29.45214,5.58938 L35.0332,17.43994 C35.8042754,19.0917064 37.3473092,20.2509953 39.14844,20.53174 L52.00488,22.48874 C52.1904797,22.5166313 52.3447755,22.6462189 52.4043123,22.8242092 C52.4638491,23.0021995 52.4185754,23.1985421 52.28711,23.33249 L42.86133,32.96 C41.6177565,34.2392083 41.0549781,36.0326328 41.34473,37.793 Z" id="Shape"/><path d="M38.99805,21.52 C36.867451,21.1897656 35.0414991,19.8195686 34.12891,17.86619 L29,6.97559 L23.86914,17.86914 C22.9567282,19.8212991 21.1315043,21.1904064 19.002,21.52 L7.11035,23.33057 L15.85156,32.25879 C17.3181947,33.7650153 17.9825118,35.878156 17.64156,37.95264 L15.62301,50.28764 L25.918,44.61621 C27.8368456,43.5579369 30.1644978,43.5583145 32.083,44.61721 L42.377,50.2876 L40.35845,37.9546 C40.0173849,35.8803068 40.6809104,33.767236 42.14653,32.26026 L50.8897,23.33058 L38.99805,21.52 Z" id="Shape"/></g></g></svg>