<?xml version="1.0" ?><svg height="60px" version="1.1" viewBox="0 0 60 60" width="60px" xmlns="http://www.w3.org/2000/svg" xmlns:xlink="http://www.w3.org/1999/xlink"><title/><desc/><defs/><g fill="none" fill-rule="evenodd" id="Page-1" stroke="none" stroke-width="1"><g fill-rule="nonzero" id="020---Star"><g id="Icons" transform="translate(1.000000, 1.000000)"><path d="M58,29.005 C57.9846946,36.6805529 54.920601,44.0355874 49.4819139,49.4517695 C44.0432269,54.8679516 36.6755503,57.9015214 29,57.885 C28.33,57.885 27.66,57.865 27,57.805 C11.8148168,56.8242902 9.32587341e-15,44.221819 7.54951657e-15,29.005 C5.77315973e-15,13.788181 11.8148168,1.18570975 27,0.205 C27.66,0.145 28.33,0.125 29,0.125 C36.6755511,0.108475955 44.0432292,3.14204484 49.4819168,8.55822756 C54.9206045,13.9744103 57.9846973,21.3294463 58,29.005 Z" fill="#C0C0C0" id="Shape"/><ellipse cx="27" cy="29.005" fill="#D8D8D8" id="Oval" rx="27" ry="28.79999"/><path d="M55,29.005 C54.9517585,43.3249643 43.3200343,54.9030037 29,54.885 C28.16,54.885 27.33,54.845 26.5,54.765 C13.1870891,53.5408138 3.00007599,42.3740773 3.00007599,29.005 C3.00007599,15.6359227 13.1870891,4.46918623 26.5,3.245 C27.33,3.165 28.16,3.125 29,3.125 C43.3200433,3.10697426 54.9517805,14.6850265 55,29.005 Z" fill="#DBDCDE" id="Shape"/><ellipse cx="26.5" cy="29.005" fill="#EBEBEB" id="Oval" rx="23.5" ry="25.76001"/><path d="M36.47,31.27 C36.2307259,31.5205042 36.1200617,31.8671945 36.16995,32.21 L37.4,39.73 C37.4654408,40.1430029 37.2899071,40.557211 36.9476408,40.7974352 C36.6053746,41.0376594 36.1561629,41.061937 35.79,40.86 L34.1,39.93 L33.16994,34.21 C33.1200517,33.8671945 33.2307159,33.5205042 33.46999,33.27 L38.68999,27.9 C38.9753305,27.6067254 39.0726154,27.1784628 38.9419819,26.7906948 C38.8113483,26.4029267 38.474754,26.1208319 38.07012,26.06 L30.95,24.97 C30.5917851,24.9097222 30.2856173,24.6782295 30.13,24.35 L27.03,17.72 L28.01,15.63 C28.1896964,15.2455961 28.5756685,14.9999631 29,14.9999631 C29.4243315,14.9999631 29.8103036,15.2455961 29.99,15.63 L33.13,22.35 C33.2856075,22.6782165 33.5917538,22.9097071 33.94995,22.97 L41.07007,24.06 C41.474704,24.1208319 41.8112983,24.4029267 41.9419319,24.7906948 C42.0725654,25.1784628 41.9752805,25.6067254 41.68994,25.9 L36.47,31.27 Z" fill="#D8D8D8" id="Shape"/><path d="M33.47,33.27 C33.2307259,33.5205042 33.1200617,33.8671945 33.16995,34.21 L34.1,39.93 L29.53,37.39 C29.2021863,37.2000051 28.7977537,37.2000051 28.46994,37.39 L25.33005,39.13 L22.21,40.86 C21.8438371,41.061937 21.3946254,41.0376594 21.0523592,40.7974352 C20.7100929,40.557211 20.5345592,40.1430029 20.6,39.73 L21.8301,32.21 C21.8800015,31.8672025 21.769356,31.5205133 21.5301,31.27 L16.3101,25.9 C16.25004,25.84 16.21,25.78 16.15995,25.72 C15.9678302,25.4063399 15.94539,25.0173566 16.1001657,24.6836844 C16.2549413,24.3500122 16.5664027,24.1159109 16.92995,24.06 L22.4,23.22 L24.05,22.97 C24.4082149,22.9097222 24.7143827,22.6782295 24.87,22.35 L27.03,17.72 L30.13,24.35 C30.2856173,24.6782295 30.5917851,24.9097222 30.95,24.97 L38.07012,26.06 C38.474754,26.1208319 38.8113483,26.4029267 38.9419819,26.7906948 C39.0726154,27.1784628 38.9753305,27.6067254 38.68999,27.9 L33.47,33.27 Z" fill="#EBEBEB" id="Shape"/></g><g fill="#FFFFFF" id="Layer_13" transform="translate(2.000000, 1.000000)"><path d="M30.45,57.87 C19.7910404,58.3836418 9.71612985,52.98292 4.24340019,43.8217804 C-1.22932948,34.6606408 -1.20953185,23.2294893 4.29489728,14.0873611 C9.7993264,4.94523284 19.8928835,-0.420559164 30.55,0.13 C15.145871,0.847513201 3.01788694,13.53155 2.99117961,28.9523574 C2.96447229,44.3731649 15.0484487,57.0991344 30.45,57.87 Z" id="Shape"/></g><g id="Outline"><path d="M16.0625,5.85953 C6.29891664,11.5306732 0.867341808,22.4858115 2.264,33.69022 C4.13258901,47.7768102 16.2972576,58.2037564 30.50391,57.89606 C37.3608989,57.7107229 43.9194668,55.0515397 48.96936,50.40921 C56.672623,43.3491209 59.7636954,32.5642045 56.9697285,22.4954971 C54.1757617,12.4267898 45.9692003,4.77685513 35.72936,2.6958 C29.0070937,1.32575114 22.0159567,2.45038769 16.0625,5.85953 L15.0625,4.12753 C21.4401473,0.474036114 28.9302021,-0.731353497 36.13208,0.73676 C47.0891979,2.99276881 55.8621889,11.1911888 58.8540941,21.9706373 C61.8459994,32.7500859 58.553549,44.2973467 50.32666,51.878 C44.9178283,56.8519649 37.891357,59.6999427 30.54578,59.89561 C19.3493065,60.1674247 8.94649181,54.136352 3.61910168,44.2847625 C-1.70828845,34.4331729 -1.05991252,22.4260084 5.29736,13.20538 C7.83729697,9.49129059 11.1732473,6.39012086 15.0625,4.1275 L16.0625,5.85953 Z" fill="#FFFFFF" id="Shape"/><path d="M36.13208,0.73676 C28.930206,-0.731377442 21.4401462,0.474002318 15.0625,4.1275 L13.3252,5.24908 L12.45935,5.8139 L11.65076,6.45898 C11.4373743,6.62179609 11.2990616,6.86412262 11.2673885,7.13065473 C11.2357153,7.39718683 11.3133845,7.66517942 11.48267,7.87347 C11.8280725,8.29307406 12.44272,8.36610468 12.87683,8.03912 L13.63037,7.4353 L14.44043,6.9093 L16.0625,5.8595 C22.015968,2.45037868 29.0071038,1.32575355 35.72937,2.6958 C45.9519986,4.80085166 54.1366559,12.4501348 56.9274016,22.5072277 C59.7181473,32.5643205 56.6455148,43.3373924 48.96937,50.40918 C43.9194724,55.0515066 37.3609094,57.7106985 30.50392,57.89606 C20.0565739,58.1522414 10.3487852,52.5255625 5.37799767,43.3329599 C0.40721012,34.1403574 1.01394389,22.9362265 6.94836,14.33417 L7.49304,13.53705 C7.79795737,13.0953908 7.71300314,12.493669 7.29773,12.15369 C7.08705957,11.9833133 6.8151733,11.9079188 6.5468446,11.9454682 C6.2785159,11.9830175 6.03776945,12.1301489 5.88196,12.35181 L5.29736,13.20538 C-1.03697866,22.4302419 -1.67324827,34.4250451 3.64961542,44.2682684 C8.97247912,54.1114917 19.3583195,60.1459314 30.54578,59.89563 C37.891359,59.6999545 44.9178298,56.8519698 50.32666,51.878 C58.5806615,44.3090437 61.891545,32.7499444 58.8964184,21.95889 C55.9012919,11.1678355 47.106403,2.9687712 36.13208,0.73676 Z" fill="#A7A7A7" id="Shape"/><path d="M9.29224,10.88452 C9.55338337,10.8810385 9.80395514,10.7808262 9.99548,10.60327 C10.1759952,10.4198835 10.2789839,10.1740427 10.28308,9.91675 L10.26257,9.72711 C10.2503807,9.66079559 10.229662,9.59633712 10.20093,9.53534 C10.1818919,9.47456534 10.1540927,9.41689183 10.11841,9.36414 C10.0806962,9.3086907 10.0393031,9.25583524 9.99451,9.20593 C9.80896564,9.01622777 9.55654849,8.90667173 9.29126,8.9007 C8.73338269,8.91936219 8.2821842,9.36110311 8.25171,9.91846 C8.25922232,10.0521917 8.29386136,10.1829973 8.35352,10.30292 C8.40829452,10.4229861 8.48619171,10.5310818 8.58276,10.62103 C8.77861912,10.7934287 9.03132911,10.8872813 9.29224,10.88452 Z" fill="#A7A7A7" id="Shape"/><path d="M30,55.875 C44.2741376,55.8062083 55.7963276,44.1910968 55.7504665,29.9168671 C55.7046053,15.6426374 44.1080185,4.1018034 29.8337335,4.12473387 C15.5594486,4.14766433 4.00000027,15.7256966 4,30 C4.05059081,44.3181773 15.6817451,55.8934126 30,55.875 Z M30,6.125 C43.1695757,6.19376862 53.796362,16.9134441 53.7505153,30.0831195 C53.7046686,43.2527949 43.0035054,53.898223 29.8337702,53.8752983 C16.6640349,53.8523737 5.99999752,43.1697552 6,30 C6.04967695,16.7860145 16.7859352,6.10567421 30,6.125 Z" fill="#A7A7A7" id="Shape"/><path d="M21.83887,33.04834 L20.61621,40.56734 C20.4864311,41.358116 20.8200054,42.1535069 21.4750287,42.6151494 C22.130052,43.0767918 22.9912948,43.1234751 23.69238,42.73534 L30.042,39.26074 L36.30763,42.73535 C37.0087152,43.1234851 37.869958,43.0768018 38.5249813,42.6151594 C39.1800046,42.1535169 39.5135789,41.358126 39.3838,40.56735 L38.18653,32.96628 L43.40626,27.59958 C43.9525581,27.0377103 44.1394722,26.2178649 43.8906985,25.4747292 C43.6419248,24.7315934 42.9990906,24.1895163 42.22462,24.06979 L35.03712,22.92673 L31.8916,16.20508 C31.5488008,15.4699454 30.8111314,14.9999983 30,14.9999983 C29.1888686,14.9999983 28.4511992,15.4699454 28.1084,16.20508 L24.89453,22.97852 L17.77539,24.06982 C17.0008529,24.1896327 16.3579955,24.7318051 16.1092277,25.4750261 C15.86046,26.2182471 16.0474038,27.038167 16.59375,27.6001 L21.83887,33.04834 Z M18.07813,26.04634 L25.19727,24.95503 C25.8871452,24.850061 26.4787555,24.4069004 26.77344,23.77436 L30,17 C30.0355921,16.996691 30.0687722,17.0183401 30.08008,17.05225 L30.08108,17.05273 L33.22562,23.77393 C33.5207485,24.4066029 34.1126117,24.8498605 34.80276,24.95508 L41.92191,26.04639 L41.97269,26.20557 L36.75394,31.57129 C36.291899,32.0477789 36.0816199,32.7142574 36.18655,33.36963 L37.40921,40.88863 C37.41312,40.90914 37.41898,40.94771 37.27835,40.98629 L31.01175,37.51119 C30.3823923,37.1607625 29.616518,37.1609479 28.98733,37.51168 L22.62894,40.98141 C22.5967882,40.9625988 22.5811907,40.9246064 22.59085,40.88863 L23.81351,33.3691 C23.9183139,32.7142108 23.7084369,32.0482187 23.2471,31.57174 L18.02737,26.20553 L17.31058,26.90279 L18.07813,26.04634 Z" fill="#A7A7A7" id="Shape"/></g></g></g></svg>