<?xml version="1.0" encoding="utf-8"?>
<!-- Generator: Adobe Illustrator 24.1.0, SVG Export Plug-In . SVG Version: 6.00 Build 0)  -->
<svg version="1.1" id="Layer_1" xmlns="http://www.w3.org/2000/svg" xmlns:xlink="http://www.w3.org/1999/xlink" x="0px" y="0px"
	 viewBox="0 0 58 58" style="enable-background:new 0 0 58 58;" xml:space="preserve">
<style type="text/css">
	.st0{fill-rule:evenodd;clip-rule:evenodd;fill:#F7EDD2;}
	.st1{fill-rule:evenodd;clip-rule:evenodd;fill:#F4CD68;}
</style>
<desc></desc>
<g id="Page-1">
	<g id="_x30_19---Star" transform="translate(-1.000000, 0.000000)">
		<path id="Shape" class="st0" d="M31.8,1.1l7.4,15.8c0.3,0.6,0.8,1,1.5,1.1l16.6,2.5c0.8,0.1,1.4,0.7,1.6,1.4s0,1.5-0.5,2.1
			l-12,12.3c-0.5,0.5-0.7,1.2-0.6,1.8l2.8,17.4c0.2,0.7-0.1,1.5-0.7,2c-0.6,0.5-1.4,0.5-2.1,0.2l-14.9-8.2c-0.6-0.3-1.3-0.3-1.8,0
			l-14.9,8.2c-0.7,0.3-1.5,0.3-2.1-0.2c-0.6-0.5-0.9-1.2-0.7-2l2.8-17.4c0.1-0.7-0.1-1.3-0.6-1.8l-12-12.3c-0.5-0.5-0.7-1.3-0.5-2.1
			c0.2-0.7,0.8-1.3,1.6-1.4l16.6-2.5c0.6-0.1,1.2-0.5,1.5-1.1l7.4-15.8C28.6,0.4,29.2,0,30,0S31.4,0.4,31.8,1.1z"/>
		<path id="Shape_1_" class="st1" d="M37.4,13.1c-4.8,2.6-9.2,5.8-13.2,9.5c-4.2,4-7.8,8.7-10.6,13.8l-12-12.3
			c-0.5-0.5-0.7-1.3-0.5-2.1c0.2-0.7,0.8-1.3,1.6-1.4l16.6-2.5c0.6-0.1,1.2-0.5,1.5-1.1l7.4-15.8C28.6,0.4,29.2,0,30,0
			s1.4,0.4,1.8,1.1L37.4,13.1z"/>
	</g>
</g>
</svg>
