<?xml version="1.0" ?><svg height="56px" version="1.1" viewBox="0 0 56 56" width="56px" xmlns="http://www.w3.org/2000/svg" xmlns:xlink="http://www.w3.org/1999/xlink"><title/><desc/><defs/><g fill="none" fill-rule="evenodd" id="Page-1" stroke="none" stroke-width="1"><g fill="#000000" fill-rule="nonzero" id="019---Star" transform="translate(-1.000000, 0.000000)"><path d="M1.30859,22.40723 C1.01590916,22.1082187 0.919613812,21.6683586 1.06059,21.27441 C1.16639236,20.9194822 1.4648851,20.6556513 1.83012,20.59424 L18.47465,18.06006 C19.4523571,17.9050636 20.2884816,17.2729326 20.70414,16.37451 L28.14746,0.5708 C28.2897735,0.225399323 28.6264297,-2.8177868e-06 29,-2.8177868e-06 C29.3735703,-2.8177868e-06 29.7102265,0.225399323 29.85254,0.5708 L35.31042,12.15936 C30.7938306,14.6584082 26.6118511,17.7192982 22.86426,21.269 C18.9120121,25.0562552 15.5178684,29.3858053 12.78357,34.12787 L1.30859,22.40723 Z M43.81152,37.38723 L46.6543,54.75732 C46.7342072,55.1673258 46.567405,55.5862386 46.22754,55.8291 C45.9509375,56.0335719 45.5795667,56.055035 45.28125,55.88379 L30.39453,47.68262 C29.5269204,47.2021527 28.4730796,47.2021527 27.60547,47.68262 L12.71875,55.88379 C12.4202739,56.0543578 12.0492989,56.0329177 11.77246,55.8291 C11.432595,55.5862386 11.2657928,55.1673258 11.3457,54.75732 L14.1875,37.3877 C14.3300925,36.4960233 14.0776256,35.5864308 13.49585,34.89581 C16.2081299,30.1310486 19.5966154,25.7845063 23.55566,21.9917 C27.2252174,18.5166358 31.3181907,15.5179987 35.73779,13.0667 L37.2959,16.375 C37.7117562,17.2731759 38.547823,17.9050794 39.52539,18.06006 L56.16992,20.59424 C56.5351549,20.6556513 56.8336476,20.9194822 56.93945,21.27441 C57.0804262,21.6683586 56.9841308,22.1082187 56.69145,22.40723 L44.64844,34.7085 C43.9604846,35.4181758 43.6499452,36.4121121 43.81152,37.38721 L43.81152,37.38723 Z" id="Shape"/></g></g></svg>