<?xml version="1.0" ?><svg height="60px" version="1.1" viewBox="0 0 60 60" width="60px" xmlns="http://www.w3.org/2000/svg" xmlns:xlink="http://www.w3.org/1999/xlink"><title/><desc/><defs/><g fill="none" fill-rule="evenodd" id="Page-1" stroke="none" stroke-width="1"><g fill-rule="nonzero" id="020---Star"><g id="Icons" stroke="#7D5E46" transform="translate(1.000000, 1.000000)"><ellipse cx="29" cy="29" fill="#F4D65E" id="Oval" rx="29" ry="28.875"/><path d="M29.98674,15.62886 L33.13174,22.35049 C33.2857403,22.680262 33.5941262,22.9114529 33.95385,22.96681 L41.07343,24.058 C41.4778416,24.1211106 41.8132348,24.4046145 41.942804,24.7928715 C42.0723731,25.1811285 41.9744588,25.6092358 41.689,25.90257 L36.4694,31.26916 C36.2276818,31.5179354 36.1180356,31.866473 36.17379,32.20883 L37.39643,39.728 C37.464724,40.1404235 37.291276,40.5555973 36.9498872,40.7968667 C36.6084984,41.0381361 36.1592403,41.0630471 35.79327,40.861 L29.52735,37.38634 C29.1993341,37.2043545 28.8006659,37.2043545 28.47265,37.38634 L22.20673,40.861 C21.8407597,41.0630471 21.3915016,41.0381361 21.0501128,40.7968667 C20.708724,40.5555973 20.535276,40.1404235 20.60357,39.728 L21.82621,32.20888 C21.8819644,31.866523 21.7723182,31.5179854 21.5306,31.26921 L16.311,25.90259 C16.0255412,25.6092558 15.9276269,25.1811485 16.057196,24.7928915 C16.1867652,24.4046345 16.5221584,24.1211306 16.92657,24.05802 L24.04612,22.96681 C24.4058438,22.9114529 24.7142297,22.680262 24.86823,22.35049 L28.01323,15.62886 C28.1919367,15.24524 28.5767824,14.9999629 28.999985,14.9999629 C29.4231876,14.9999629 29.8080333,15.24524 29.98674,15.62886 Z" fill="#EDA566" id="Shape"/></g><g fill="#7D5E46" id="Layer_12"><path d="M30,59.875 C13.516729,59.8061758 0.203712938,46.4001913 0.249595741,29.9168404 C0.295478545,13.4334895 13.6829211,0.101828045 30.1663198,0.124769353 C46.6497186,0.147710662 59.9999998,13.5165853 60,30 C59.9467204,46.5262011 46.5262795,59.8907235 30,59.875 Z M30,2.125 C14.6212947,2.19380832 2.20369152,14.7043573 2.24956401,30.0831481 C2.29543649,45.4619389 14.787452,57.8981865 30.1662941,57.87525 C45.5451362,57.8523134 58.0000005,45.3788592 58,30 C57.9479795,14.5778464 45.422232,2.10801744 30,2.125 Z" id="Shape"/><path d="M30,55.875 C15.7258624,55.8062083 4.20367241,44.1910968 4.24953355,29.9168671 C4.29539468,15.6426374 15.8919815,4.1018034 30.1662665,4.12473387 C44.4405514,4.14766433 55.9999997,15.7256966 56,30 C55.9494092,44.3181773 44.3182549,55.8934126 30,55.875 Z M30,6.125 C16.8304243,6.19376862 6.20363798,16.9134441 6.24948467,30.0831195 C6.29533136,43.2527949 16.9964946,53.898223 30.1662298,53.8752983 C43.3359651,53.8523737 54.0000025,43.1697552 54,30 C53.950323,16.7860145 43.2140648,6.10567421 30,6.125 Z" id="Shape"/><path d="M37.32227,43 C36.9670444,42.9995542 36.6178089,42.9084635 36.30762,42.73535 L30.042,39.26074 L23.69239,42.73535 C22.9913048,43.1234851 22.130062,43.0768018 21.4750387,42.6151594 C20.8200154,42.1535169 20.4864411,41.358126 20.61622,40.56735 L21.83888,33.04835 L16.59375,27.6001 C16.0474038,27.038167 15.86046,26.2182471 16.1092277,25.4750261 C16.3579955,24.7318051 17.0008529,24.1896327 17.77539,24.06982 L24.89453,22.97852 L28.1084,16.20508 C28.4511992,15.4699454 29.1888686,14.9999983 30,14.9999983 C30.8111314,14.9999983 31.5488008,15.4699454 31.8916,16.20508 L35.03711,22.92676 L42.22461,24.06982 C42.9990806,24.1895463 43.6419148,24.7316234 43.8906885,25.4747592 C44.1394622,26.2178949 43.9525481,27.0377403 43.40625,27.59961 L38.18652,32.96631 L39.38379,40.56738 C39.4821461,41.1728346 39.3104106,41.7909935 38.9138421,42.2589494 C38.5172737,42.7269052 37.9356573,42.9977112 37.32227,43 Z M30,37.24854 C30.3540761,37.2487637 30.7022609,37.3391689 31.01172,37.51123 L37.27832,40.98633 C37.41895,40.94775 37.41309,40.90918 37.40918,40.88867 L36.18652,33.36967 C36.0815899,32.7142974 36.291869,32.0478189 36.75391,31.57133 L41.97266,26.20561 L41.92188,26.04643 L34.80273,24.95512 C34.1125817,24.8499005 33.5207185,24.4066429 33.22559,23.77397 L30.08105,17.05277 L30.08005,17.05229 C30.0687595,17.018376 30.0355923,16.9967107 30,17 L26.77344,23.77441 C26.4787555,24.4069504 25.8871452,24.850111 25.19727,24.95508 L18.07813,26.04639 L17.31055,26.90283 L18.02734,26.20557 L23.24707,31.57178 C23.7084069,32.0482587 23.9182839,32.7142508 23.81348,33.36914 L22.59082,40.88867 C22.5811607,40.9246464 22.5967582,40.9626388 22.62891,40.98145 L28.9873,37.51172 C29.2970303,37.3393936 29.645558,37.2488184 30,37.24854 Z" id="Shape"/></g></g></g></svg>